<?xml version="1.0" encoding="utf-8"?>
<!-- Generator: Adobe Illustrator 24.0.3, SVG Export Plug-In . SVG Version: 6.00 Build 0)  -->
<svg version="1.1" id="_x30_" xmlns="http://www.w3.org/2000/svg" xmlns:xlink="http://www.w3.org/1999/xlink" x="0px" y="0px"
	 viewBox="0 0 612 792" style="enable-background:new 0 0 612 792;" xml:space="preserve">
<style type="text/css">
	.st0{fill:none;stroke:#000000;stroke-width:0.7087;stroke-linecap:round;stroke-linejoin:round;stroke-miterlimit:10;}
</style>
<g id="LWPOLYLINE">
	<path class="st0" d="M165.41,392.68l16.1-2.84l-11,41.07l21.9,5.87l33.94-126.66l60.24,16.14l-11.05,41.26l10.95,2.93l11.05-41.26
		l85.23,22.84c4,1.07,8.18,1.25,12.26,0.54l45.06-7.94c15.42-2.72,30.12,7.58,32.84,22.99l1.58,8.99l-139.58,24.61l1.97,11.17
		l139.58-24.61l1.58,8.99c2.72,15.42-7.58,30.12-22.99,32.84L166.7,480.45c-4.08,0.72-8.26,0.54-12.26-0.54
		c-15.12-4.05-24.1-19.6-20.04-34.72c0,0,8.56-31.93,8.56-31.93C145.8,402.62,154.56,394.59,165.41,392.68z"/>
</g>
</svg>
