<?xml version="1.0" encoding="utf-8"?>
<!-- Generator: Adobe Illustrator 24.0.3, SVG Export Plug-In . SVG Version: 6.00 Build 0)  -->
<svg version="1.1" id="_x30_" xmlns="http://www.w3.org/2000/svg" xmlns:xlink="http://www.w3.org/1999/xlink" x="0px" y="0px"
	 viewBox="0 0 612 792" style="enable-background:new 0 0 612 792;" xml:space="preserve">
<style type="text/css">
	.st0{fill:none;stroke:#000000;stroke-width:0.7087;stroke-linecap:round;stroke-linejoin:round;stroke-miterlimit:10;}
</style>
<g id="LWPOLYLINE">
	<path class="st0" d="M407.31,477.81c15.12-4.05,30.67,4.92,34.72,20.04l1.8,6.72L334.3,533.92l2.93,10.95l109.52-29.35l1.8,6.72
		c4.05,15.12-4.92,30.67-20.04,34.72l-230.32,61.71c-4.81,1.29-9.87,1.29-14.67,0c-15.12-4.05-24.1-19.6-20.04-34.72l104.66-390.58
		c4.05-15.12,19.6-24.1,34.72-20.04l2.74,0.73l-57.96,216.31l21.9,5.87l57.96-216.31c0,0,2.74,0.73,2.74,0.73
		c15.12,4.05,24.1,19.6,20.04,34.72l-80.17,299.18L407.31,477.81z"/>
</g>
</svg>
