<?xml version="1.0" encoding="utf-8"?>
<!-- Generator: Adobe Illustrator 24.0.3, SVG Export Plug-In . SVG Version: 6.00 Build 0)  -->
<svg version="1.1" id="_x30_" xmlns="http://www.w3.org/2000/svg" xmlns:xlink="http://www.w3.org/1999/xlink" x="0px" y="0px"
	 viewBox="0 0 612 792" style="enable-background:new 0 0 612 792;" xml:space="preserve">
<style type="text/css">
	.st0{fill:none;stroke:#000000;stroke-width:0.7087;stroke-linecap:round;stroke-linejoin:round;stroke-miterlimit:10;}
</style>
<g id="LWPOLYLINE">
	<path class="st0" d="M191.98,409.09l18.97-5.08l-11,41.07l21.9,5.87l41.6-155.25c0,0,60.24,16.14,60.24,16.14l-13.83,51.6
		l10.95,2.93l13.83-51.6l82.62,22.14c9.78,2.62,17.42,10.26,20.04,20.04l6.52,24.35L334.3,410.65l2.93,10.95l109.52-29.35l1.8,6.72
		c4.05,15.12-4.92,30.67-20.04,34.72l-230.32,61.71c-4.81,1.29-9.87,1.29-14.67,0c-15.12-4.05-24.1-19.6-20.04-34.72l8.46-31.56
		C174.55,419.35,182.19,411.71,191.98,409.09z"/>
</g>
</svg>
