<?xml version="1.0" encoding="utf-8"?>
<!-- Generator: Adobe Illustrator 24.0.3, SVG Export Plug-In . SVG Version: 6.00 Build 0)  -->
<svg version="1.1" id="_x30_" xmlns="http://www.w3.org/2000/svg" xmlns:xlink="http://www.w3.org/1999/xlink" x="0px" y="0px"
	 viewBox="0 0 612 792" style="enable-background:new 0 0 612 792;" xml:space="preserve">
<style type="text/css">
	.st0{fill:none;stroke:#000000;stroke-width:0.7087;stroke-linecap:round;stroke-linejoin:round;stroke-miterlimit:10;}
</style>
<g id="LWPOLYLINE">
	<path class="st0" d="M469,413.3l8.6,31.9c4.1,15.1-4.9,30.7-20,34.7c-4,1.1-8.2,1.3-12.3,0.5l-288.4-50.8
		c-15.4-2.7-25.7-17.4-23-32.8l1.6-9L275,412.4l2-11.2l-139.6-24.6l1.6-9c2.7-15.4,17.4-25.7,32.8-23l45.1,7.9
		c4.1,0.7,8.3,0.5,12.3-0.5l85.2-22.8l11,41.3l11-2.9l-11-41.3l60.2-16.1l33.9,126.7l21.9-5.9l-11-41.1l16.1,2.8
		C457.4,394.6,466.1,402.6,469,413.3z"/>
</g>
</svg>
