<?xml version="1.0" encoding="utf-8"?>
<!-- Generator: Adobe Illustrator 24.0.3, SVG Export Plug-In . SVG Version: 6.00 Build 0)  -->
<svg version="1.1" id="_x30_" xmlns="http://www.w3.org/2000/svg" xmlns:xlink="http://www.w3.org/1999/xlink" x="0px" y="0px"
	 viewBox="0 0 612 792" style="enable-background:new 0 0 612 792;" xml:space="preserve">
<style type="text/css">
	.st0{fill:none;stroke:#000000;stroke-width:0.7087;stroke-linecap:round;stroke-linejoin:round;stroke-miterlimit:10;}
</style>
<g id="LINE">
	<line class="st0" x1="16.87" y1="537.23" x2="595.13" y2="537.23"/>
</g>
<g id="ARC">
	<path class="st0" d="M595.13,537.23c15.66,0,28.35-12.69,28.35-28.35"/>
</g>
<g id="LINE_1_">
	<line class="st0" x1="623.48" y1="508.89" x2="623.48" y2="253.77"/>
</g>
<g id="LINE_2_">
	<line class="st0" x1="623.48" y1="253.77" x2="586.63" y2="253.77"/>
</g>
<g id="LINE_3_">
	<line class="st0" x1="586.63" y1="253.77" x2="586.63" y2="395.5"/>
</g>
<g id="LINE_4_">
	<line class="st0" x1="586.63" y1="395.5" x2="575.29" y2="395.5"/>
</g>
<g id="LINE_5_">
	<line class="st0" x1="575.29" y1="395.5" x2="575.29" y2="253.77"/>
</g>
<g id="LINE_6_">
	<line class="st0" x1="575.29" y1="253.77" x2="416.55" y2="253.77"/>
</g>
<g id="LINE_7_">
	<line class="st0" x1="36.71" y1="253.77" x2="36.71" y2="395.5"/>
</g>
<g id="LINE_8_">
	<line class="st0" x1="36.71" y1="395.5" x2="25.37" y2="395.5"/>
</g>
<g id="LINE_9_">
	<line class="st0" x1="25.37" y1="395.5" x2="25.37" y2="253.77"/>
</g>
<g id="LINE_10_">
	<line class="st0" x1="25.37" y1="253.77" x2="-11.48" y2="253.77"/>
</g>
<g id="LINE_11_">
	<line class="st0" x1="-11.48" y1="253.77" x2="-11.48" y2="508.89"/>
</g>
<g id="ARC_1_">
	<path class="st0" d="M-11.48,508.89c0,15.66,12.69,28.35,28.35,28.35"/>
</g>
<g id="LINE_12_">
	<line class="st0" x1="416.55" y1="253.77" x2="416.55" y2="395.5"/>
</g>
<g id="LINE_13_">
	<line class="st0" x1="416.55" y1="395.5" x2="405.21" y2="395.5"/>
</g>
<g id="LINE_14_">
	<line class="st0" x1="405.21" y1="395.5" x2="405.21" y2="253.77"/>
</g>
<g id="LINE_15_">
	<line class="st0" x1="206.79" y1="253.77" x2="206.79" y2="395.5"/>
</g>
<g id="LINE_16_">
	<line class="st0" x1="206.79" y1="395.5" x2="195.45" y2="395.5"/>
</g>
<g id="LINE_17_">
	<line class="st0" x1="195.45" y1="395.5" x2="195.45" y2="253.77"/>
</g>
<g id="LINE_18_">
	<line class="st0" x1="195.45" y1="253.77" x2="36.71" y2="253.77"/>
</g>
<g id="ARC_2_">
	<path class="st0" d="M345.13,253.77c-1.42,0-2.75,0.71-3.54,1.89"/>
</g>
<g id="LINE_19_">
	<line class="st0" x1="341.59" y1="255.66" x2="338.44" y2="260.38"/>
</g>
<g id="ARC_3_">
	<path class="st0" d="M334.91,262.27c1.42,0,2.75-0.71,3.54-1.89"/>
</g>
<g id="LINE_20_">
	<line class="st0" x1="334.91" y1="262.27" x2="277.09" y2="262.27"/>
</g>
<g id="ARC_4_">
	<path class="st0" d="M273.56,260.38c0.79,1.18,2.12,1.89,3.54,1.89"/>
</g>
<g id="LINE_21_">
	<line class="st0" x1="273.56" y1="260.38" x2="270.67" y2="256.04"/>
</g>
<g id="ARC_5_">
	<path class="st0" d="M270.67,256.04c-0.95-1.42-2.54-2.28-4.25-2.28"/>
</g>
<g id="LINE_22_">
	<line class="st0" x1="405.21" y1="253.77" x2="345.13" y2="253.77"/>
</g>
<g id="LINE_23_">
	<line class="st0" x1="266.41" y1="253.77" x2="206.79" y2="253.77"/>
</g>
</svg>
