<?xml version="1.0" encoding="utf-8"?>
<!-- Generator: Adobe Illustrator 24.0.3, SVG Export Plug-In . SVG Version: 6.00 Build 0)  -->
<svg version="1.1" id="_x30_" xmlns="http://www.w3.org/2000/svg" xmlns:xlink="http://www.w3.org/1999/xlink" x="0px" y="0px"
	 viewBox="0 0 612 792" style="enable-background:new 0 0 612 792;" xml:space="preserve">
<style type="text/css">
	.st0{fill:none;stroke:#000000;stroke-width:0.7087;stroke-linecap:round;stroke-linejoin:round;stroke-miterlimit:10;}
</style>
<g id="LWPOLYLINE">
	<path class="st0" d="M440.08,482.69c15.42-2.72,30.12,7.58,32.84,22.99l1.58,8.99l-139.58,24.61l1.97,11.17l139.58-24.61l1.58,8.99
		c2.72,15.42-7.58,30.12-22.99,32.84L166.7,618.51c-4.08,0.72-8.26,0.54-12.26-0.54c-15.12-4.05-24.1-19.6-20.04-34.72l104.3-389.25
		c4.05-15.12,19.6-24.1,34.72-20.04l2.74,0.73L218.19,391l21.9,5.87l57.96-216.31l2.74,0.73c15.12,4.05,24.1,19.6,20.04,34.72
		l-80.91,301.96L440.08,482.69z"/>
</g>
</svg>
